# xmcd
#
# Track frame offsets:
#	150
#	9654
#	24045
#	32457
#	43566
#	54221
#	63706
#	76110
#	94422
#	107648
#	121316
#	132164
#	141840
#	151793
#	166077
#	176439
#
# Disc length: 2504 seconds
#
# Revision: 1
# Processed by: cddbd v1.5.1PL0 Copyright (c) Steve Scherf et al.
# Submitted via: audiograbber 1.83.01
#
DISCID=b909c610
DTITLE=Waterloo Boy - Pickin' Overtime
DYEAR=1900
DGENRE=
TTITLE0=Ridin' the Midnight Train
TTITLE1=Voice From on High
TTITLE2=Rough ol' Loggin' Man
TTITLE3=Footprints in the Snow
TTITLE4=Building on the Rock
TTITLE5=Arkansas
TTITLE6=The Storms of Life
TTITLE7=John Deere Tractor
TTITLE8=Wandering Boy
TTITLE9=Harbor of Love
TTITLE10=Blue Virginia Moon
TTITLE11=Answer the Call
TTITLE12=Sail On
TTITLE13=Paradise
TTITLE14=East Virginia Blues
TTITLE15=I Have Found the Way
EXTD=
EXTT0=
EXTT1=
EXTT2=
EXTT3=
EXTT4=
EXTT5=
EXTT6=
EXTT7=
EXTT8=
EXTT9=
EXTT10=
EXTT11=
EXTT12=
EXTT13=
EXTT14=
EXTT15=
PLAYORDER=
